# Blender 4.3.2
# www.blender.org
mtllib ship-better.mtl
o Cube
v 1.000000 1.000000 -1.000000
v 1.000000 -1.000000 -1.000000
v 1.000000 1.000000 1.000000
v 1.000000 -1.000000 1.000000
v -1.000000 1.000000 -1.000000
v -1.000000 -1.000000 -1.000000
v -1.000000 1.000000 1.000000
v -1.000000 -1.000000 1.000000
vn -0.0000 1.0000 -0.0000
vn -0.0000 -0.0000 1.0000
vn -1.0000 -0.0000 -0.0000
vn -0.0000 -1.0000 -0.0000
vn 1.0000 -0.0000 -0.0000
vn -0.0000 -0.0000 -1.0000
vt 0.625000 0.500000
vt 0.875000 0.500000
vt 0.875000 0.750000
vt 0.625000 0.750000
vt 0.375000 0.750000
vt 0.625000 1.000000
vt 0.375000 1.000000
vt 0.375000 0.000000
vt 0.625000 0.000000
vt 0.625000 0.250000
vt 0.375000 0.250000
vt 0.125000 0.500000
vt 0.375000 0.500000
vt 0.125000 0.750000
s 0
usemtl Material
f 1/1/1 5/2/1 7/3/1 3/4/1
f 4/5/2 3/4/2 7/6/2 8/7/2
f 8/8/3 7/9/3 5/10/3 6/11/3
f 6/12/4 2/13/4 4/5/4 8/14/4
f 2/13/5 1/1/5 3/4/5 4/5/5
f 6/11/6 5/10/6 1/1/6 2/13/6
o ship
v 1.000000 -1.000000 -1.000000
v 1.000000 1.000000 -1.000000
v 1.000000 -1.000000 1.000000
v 1.000000 1.000000 1.000000
v -1.000000 -1.000000 -1.000000
v -1.000000 1.000000 -1.000000
v -1.000000 -1.000000 1.000000
v -1.000000 1.000000 1.000000
v -0.720000 0.120000 -1.400000
v 0.300000 0.000000 5.000000
v -0.600000 -0.600000 -1.400000
v -0.300000 0.000000 5.000000
v -1.200000 0.200000 1.000000
v -0.600000 0.600000 -1.400000
v -1.200000 -0.200000 -1.000000
v -1.200000 0.200000 -1.000000
v 1.200000 -0.200000 1.000000
v 1.200000 -0.200000 -1.000000
v 1.200000 0.200000 -1.000000
v 1.200000 0.200000 1.000000
v -1.200000 -0.200000 1.000000
v 0.600000 0.600000 -1.400000
v 0.600000 -0.600000 -1.400000
v -4.200000 0.060000 1.000000
v -4.200000 -0.060000 1.000000
v -4.200000 -0.060000 -1.000000
v -4.200000 0.060000 -1.000000
v 4.200000 -0.060000 1.000000
v 4.200000 -0.060000 -1.000000
v 4.200000 0.060000 -1.000000
v 4.200000 0.060000 1.000000
v 4.200000 -0.180000 1.000000
v 4.200000 -0.180000 -1.000000
v 4.200000 0.180000 -1.000000
v 4.200000 0.180000 1.000000
v 4.500000 -0.180000 1.000000
v 4.500000 -0.180000 -1.000000
v 4.500000 0.180000 -1.000000
v 4.500000 0.180000 1.000000
v -4.200000 0.180000 1.000000
v -4.200000 -0.180000 1.000000
v -4.200000 -0.180000 -1.000000
v -4.200000 0.180000 -1.000000
v -4.500000 0.180000 1.000000
v -4.500000 -0.180000 1.000000
v -4.500000 -0.180000 -1.000000
v -4.500000 0.180000 -1.000000
v 4.350000 -0.180000 3.000000
v 4.350000 0.180000 3.000000
v -4.350000 0.180000 3.000000
v -4.350000 -0.180000 3.000000
v 0.000000 -0.700000 3.000000
v -0.720000 -0.120000 -1.400000
v 0.720000 -0.120000 -1.400000
v 0.720000 0.120000 -1.400000
vn -0.6149 -0.7686 0.1768
vn -0.9701 0.2425 -0.0000
vn -0.0000 -0.7071 -0.7071
vn -0.0000 -1.0000 -0.0000
vn -0.0000 1.0000 -0.0000
vn -0.0000 0.9701 0.2425
vn 0.9756 -0.0000 0.2195
vn 0.9454 0.2363 0.2245
vn 0.8602 -0.2151 0.4624
vn -0.0000 -0.9889 0.1483
vn -0.6172 0.1543 -0.7715
vn -0.9701 -0.2425 -0.0000
vn 0.0466 0.9989 -0.0000
vn 0.6172 -0.1543 -0.7715
vn 0.9701 0.2425 -0.0000
vn 0.9701 -0.2425 -0.0000
vn -0.0000 -0.0000 1.0000
vn -0.9756 -0.0000 0.2195
vn -0.0000 -0.9439 0.3304
vn -0.9454 0.2363 0.2245
vn -0.0000 -0.0000 -1.0000
vn -0.0466 -0.9989 -0.0000
vn -0.0466 0.9989 -0.0000
vn -1.0000 -0.0000 -0.0000
vn 0.0466 -0.9989 -0.0000
vn -0.9972 -0.0000 0.0748
vn 1.0000 -0.0000 -0.0000
vn 0.9972 -0.0000 0.0748
vn 0.6402 -0.0000 -0.7682
vn -0.6172 -0.1543 -0.7715
vn 0.6172 0.1543 -0.7715
vn -0.0000 0.7071 -0.7071
vn -0.6402 -0.0000 -0.7682
vn -0.8602 -0.2151 0.4624
vn 0.6149 -0.7686 0.1768
s 0
f 29//7 60//7 20//7
f 14//8 21//8 16//8
f 13//9 31//9 9//9
f 15//10 9//10 11//10
f 12//11 14//11 16//11
f 12//12 20//12 18//12
f 25//13 28//13 18//13
f 28//14 12//14 18//14
f 25//15 60//15 11//15
f 15//16 11//16 60//16
f 24//17 22//17 17//17
f 15//18 23//18 13//18
f 28//19 38//19 27//19
f 26//20 31//20 62//20
f 12//21 27//21 10//21
f 9//22 25//22 11//22
f 21//23 33//23 29//23
f 21//24 29//24 20//24
f 20//25 60//25 18//25
f 16//26 21//26 20//26
f 35//23 50//23 51//23
f 23//27 35//27 24//27
f 29//28 34//28 23//28
f 24//29 32//29 21//29
f 39//30 42//30 38//30
f 26//31 36//31 25//31
f 25//23 39//23 28//23
f 27//27 37//27 26//27
f 40//32 57//32 43//32
f 37//30 40//30 36//30
f 39//23 40//23 43//23
f 37//23 42//23 41//23
f 46//33 44//33 45//33
f 42//27 45//27 41//27
f 43//11 46//11 42//11
f 41//10 44//10 40//10
f 51//11 52//11 48//11
f 33//33 50//33 34//33
f 35//33 48//33 32//33
f 33//23 48//23 49//23
f 52//30 54//30 53//30
f 48//11 52//11 58//11
f 50//27 55//27 51//27
f 49//10 54//10 50//10
f 52//30 55//30 54//30
f 40//10 44//10 56//10
f 47//11 43//11 57//11
f 47//34 56//34 44//34
f 53//32 59//32 58//32
f 48//34 59//34 49//34
f 53//10 49//10 59//10
f 53//32 58//32 52//32
f 26//31 37//31 36//31
f 25//23 36//23 39//23
f 12//11 10//11 14//11
f 26//35 63//35 27//35
f 23//36 19//36 13//36
f 27//37 30//37 10//37
f 10//38 22//38 14//38
f 24//39 61//39 23//39
f 61//27 17//27 62//27
f 27//27 38//27 37//27
f 23//27 34//27 35//27
f 24//29 35//29 32//29
f 21//23 32//23 33//23
f 29//28 33//28 34//28
f 15//18 29//18 23//18
f 15//10 13//10 9//10
f 29//40 15//40 60//40
f 9//22 26//22 25//22
f 25//41 18//41 60//41
f 12//21 28//21 27//21
f 28//19 39//19 38//19
f 12//12 16//12 20//12
f 51//11 55//11 52//11
f 14//8 24//8 21//8
f 48//34 58//34 59//34
f 49//10 53//10 54//10
f 50//27 54//27 55//27
f 10//38 30//38 22//38
f 27//37 63//37 30//37
f 26//35 62//35 63//35
f 26//20 9//20 31//20
f 13//9 19//9 31//9
f 23//36 61//36 19//36
f 24//39 17//39 61//39
f 24//17 14//17 22//17
f 17//27 22//27 30//27
f 30//27 63//27 17//27
f 63//27 62//27 17//27
f 62//27 31//27 19//27
f 19//27 61//27 62//27
f 42//27 46//27 45//27
f 46//33 47//33 44//33
f 47//34 57//34 56//34
f 43//11 47//11 46//11
f 41//10 45//10 44//10
f 33//33 49//33 50//33
f 35//33 51//33 48//33
f 39//30 43//30 42//30
f 37//30 41//30 40//30
f 40//32 56//32 57//32
f 35//33 34//33 50//33
f 39//30 36//30 40//30
f 37//30 38//30 42//30
f 33//33 32//33 48//33
